<svg id="eybPzgHCqrW1" xmlns="http://www.w3.org/2000/svg" xmlns:xlink="http://www.w3.org/1999/xlink" viewBox="0 0 1991 1088" shape-rendering="geometricPrecision" text-rendering="geometricPrecision"><style><![CDATA[#eybPzgHCqrW2_ts {animation: eybPzgHCqrW2_ts__ts 7000ms linear 1 normal forwards}@keyframes eybPzgHCqrW2_ts__ts { 0% {transform: translate(995.73639px,542.822242px) scale(1,1)} 38.571429% {transform: translate(995.73639px,542.822242px) scale(1,1);animation-timing-function: cubic-bezier(0.785,0.135,0.15,0.86)} 64.285714% {transform: translate(995.73639px,542.822242px) scale(0.94,0.94)} 100% {transform: translate(995.73639px,542.822242px) scale(0.94,0.94)}} #eybPzgHCqrW3 {animation-name: eybPzgHCqrW3_f_p, eybPzgHCqrW3_s_do;animation-duration: 7000ms;animation-fill-mode: forwards;animation-timing-function: linear;animation-direction: normal;animation-iteration-count: 1;}@keyframes eybPzgHCqrW3_f_p { 0% {fill: none} 38.571429% {fill: none} 41.428571% {fill: rgba(0,0,0,0.02)} 51.428571% {fill: rgb(0,0,0)} 100% {fill: rgb(0,0,0)}}@keyframes eybPzgHCqrW3_s_do { 0% {stroke-dashoffset: 4877} 38.571429% {stroke-dashoffset: 4877;animation-timing-function: cubic-bezier(0.42,0,0.58,1)} 51.428571% {stroke-dashoffset: 0} 100% {stroke-dashoffset: 0}} #eybPzgHCqrW4 {animation-name: eybPzgHCqrW4_f_p, eybPzgHCqrW4_s_do;animation-duration: 7000ms;animation-fill-mode: forwards;animation-timing-function: linear;animation-direction: normal;animation-iteration-count: 1;}@keyframes eybPzgHCqrW4_f_p { 0% {fill: rgba(0,0,0,0)} 31.428571% {fill: rgba(0,0,0,0)} 41.428571% {fill: rgba(0,0,0,0.02)} 51.428571% {fill: rgb(0,0,0)} 100% {fill: rgb(0,0,0)}}@keyframes eybPzgHCqrW4_s_do { 0% {stroke-dashoffset: 1968.59} 31.428571% {stroke-dashoffset: 1968.59;animation-timing-function: cubic-bezier(0.42,0,0.58,1)} 45.714286% {stroke-dashoffset: 0} 100% {stroke-dashoffset: 0}} #eybPzgHCqrW5 {animation-name: eybPzgHCqrW5_f_p, eybPzgHCqrW5_s_do;animation-duration: 7000ms;animation-fill-mode: forwards;animation-timing-function: linear;animation-direction: normal;animation-iteration-count: 1;}@keyframes eybPzgHCqrW5_f_p { 0% {fill: rgba(0,0,0,0)} 27.142857% {fill: rgba(0,0,0,0)} 41.428571% {fill: rgba(0,0,0,0.02)} 51.428571% {fill: rgb(0,0,0)} 100% {fill: rgb(0,0,0)}}@keyframes eybPzgHCqrW5_s_do { 0% {stroke-dashoffset: 2202.82} 27.142857% {stroke-dashoffset: 2202.82;animation-timing-function: cubic-bezier(0.42,0,0.58,1)} 41.428571% {stroke-dashoffset: 0} 100% {stroke-dashoffset: 0}} #eybPzgHCqrW6 {animation-name: eybPzgHCqrW6_f_p, eybPzgHCqrW6_s_do;animation-duration: 7000ms;animation-fill-mode: forwards;animation-timing-function: linear;animation-direction: normal;animation-iteration-count: 1;}@keyframes eybPzgHCqrW6_f_p { 0% {fill: rgba(0,0,0,0)} 21.428571% {fill: rgba(0,0,0,0)} 41.428571% {fill: rgba(0,0,0,0.02)} 51.428571% {fill: rgb(0,0,0)} 100% {fill: rgb(0,0,0)}}@keyframes eybPzgHCqrW6_s_do { 0% {stroke-dashoffset: 7222.29} 21.428571% {stroke-dashoffset: 7222.29;animation-timing-function: cubic-bezier(0.42,0,0.58,1)} 35.714286% {stroke-dashoffset: 0} 100% {stroke-dashoffset: 0}} #eybPzgHCqrW7 {animation-name: eybPzgHCqrW7_f_p, eybPzgHCqrW7_s_do;animation-duration: 7000ms;animation-fill-mode: forwards;animation-timing-function: linear;animation-direction: normal;animation-iteration-count: 1;}@keyframes eybPzgHCqrW7_f_p { 0% {fill: rgba(0,0,0,0)} 15.714286% {fill: rgba(0,0,0,0)} 41.428571% {fill: rgba(0,0,0,0.02)} 51.428571% {fill: rgb(0,0,0)} 100% {fill: rgb(0,0,0)}}@keyframes eybPzgHCqrW7_s_do { 0% {stroke-dashoffset: 1500.92} 15.714286% {stroke-dashoffset: 1500.92;animation-timing-function: cubic-bezier(0.42,0,0.58,1)} 30% {stroke-dashoffset: 0} 100% {stroke-dashoffset: 0}} #eybPzgHCqrW8 {animation-name: eybPzgHCqrW8_f_p, eybPzgHCqrW8_s_do, eybPzgHCqrW8_s_da;animation-duration: 7000ms;animation-fill-mode: forwards;animation-timing-function: linear;animation-direction: normal;animation-iteration-count: 1;}@keyframes eybPzgHCqrW8_f_p { 0% {fill: rgba(0,0,0,0)} 10% {fill: rgba(0,0,0,0)} 41.428571% {fill: rgba(0,0,0,0.02)} 51.428571% {fill: rgb(0,0,0)} 100% {fill: rgb(0,0,0)}}@keyframes eybPzgHCqrW8_s_do { 0% {stroke-dashoffset: 4957.39} 10% {stroke-dashoffset: 4957.39;animation-timing-function: cubic-bezier(0.42,0,0.58,1)} 24.285714% {stroke-dashoffset: 0} 100% {stroke-dashoffset: 0}}@keyframes eybPzgHCqrW8_s_da { 0% {stroke-dasharray: 4957.39} 10% {stroke-dasharray: 4957.39} 24.285714% {stroke-dasharray: 4957.39} 100% {stroke-dasharray: 4957.39}} #eybPzgHCqrW9 {animation-name: eybPzgHCqrW9_f_p, eybPzgHCqrW9_s_do;animation-duration: 7000ms;animation-fill-mode: forwards;animation-timing-function: linear;animation-direction: normal;animation-iteration-count: 1;}@keyframes eybPzgHCqrW9_f_p { 0% {fill: rgba(0,0,0,0)} 15.714286% {fill: rgba(0,0,0,0)} 41.428571% {fill: rgba(0,0,0,0.02)} 51.428571% {fill: rgb(0,0,0)} 100% {fill: rgb(0,0,0)}}@keyframes eybPzgHCqrW9_s_do { 0% {stroke-dashoffset: 594.69} 15.714286% {stroke-dashoffset: 594.69;animation-timing-function: cubic-bezier(0.42,0,0.58,1)} 30% {stroke-dashoffset: 0} 100% {stroke-dashoffset: 0}} #eybPzgHCqrW10 {animation-name: eybPzgHCqrW10_f_p, eybPzgHCqrW10_s_do, eybPzgHCqrW10_s_da;animation-duration: 7000ms;animation-fill-mode: forwards;animation-timing-function: linear;animation-direction: normal;animation-iteration-count: 1;}@keyframes eybPzgHCqrW10_f_p { 0% {fill: rgba(0,0,0,0)} 4.285714% {fill: rgba(0,0,0,0)} 41.428571% {fill: rgba(0,0,0,0.02)} 51.428571% {fill: rgb(0,0,0)} 100% {fill: rgb(0,0,0)}}@keyframes eybPzgHCqrW10_s_do { 0% {stroke-dashoffset: 4348.35} 4.285714% {stroke-dashoffset: 4348.35;animation-timing-function: cubic-bezier(0.42,0,0.58,1)} 18.571429% {stroke-dashoffset: 0} 100% {stroke-dashoffset: 0}}@keyframes eybPzgHCqrW10_s_da { 0% {stroke-dasharray: 4348.35} 4.285714% {stroke-dasharray: 4348.35} 18.571429% {stroke-dasharray: 4348.35} 100% {stroke-dasharray: 4348.35}} #eybPzgHCqrW11 {animation-name: eybPzgHCqrW11_f_p, eybPzgHCqrW11_s_do, eybPzgHCqrW11_s_da;animation-duration: 7000ms;animation-fill-mode: forwards;animation-timing-function: linear;animation-direction: normal;animation-iteration-count: 1;}@keyframes eybPzgHCqrW11_f_p { 0% {fill: rgba(0,0,0,0)} 41.428571% {fill: rgba(0,0,0,0.02)} 51.428571% {fill: rgb(0,0,0)} 100% {fill: rgb(0,0,0)}}@keyframes eybPzgHCqrW11_s_do { 0% {stroke-dashoffset: 6114.03;animation-timing-function: cubic-bezier(0.42,0,0.58,1)} 14.285714% {stroke-dashoffset: 0} 100% {stroke-dashoffset: 0}}@keyframes eybPzgHCqrW11_s_da { 0% {stroke-dasharray: 6114.03} 14.285714% {stroke-dasharray: 6114.03} 100% {stroke-dasharray: 6114.03}}]]></style><g id="eybPzgHCqrW2_ts" transform="translate(995.73639,542.822242) scale(1,1)"><g id="eybPzgHCqrW2" transform="translate(-995.73639,-542.822241)"><path id="eybPzgHCqrW3" d="M1814,622.63C1810.38,622.865,1806.96,622.536,1803.89,623.395C1790.55,627.124,1778.15,624.324,1766.07,618.618C1764.8,618.018,1763.59,617.219,1762.47,616.348C1759,613.654,1757.47,610.043,1758.08,605.714C1758.67,601.537,1761.32,598.702,1765.23,597.643C1769.32,596.538,1773.6,595.667,1777.82,595.608C1787.52,595.479,1795.87,592.162,1803.46,586.374C1808.18,582.774,1812.96,579.28,1817.77,575.81C1821.08,573.433,1822.7,570.34,1823.15,566.257C1826.6,535.107,1830.94,504.038,1833.54,472.829C1838.62,412.01,1842.75,351.12,1844.34,290.089C1844.64,278.466,1845.76,266.867,1846.25,255.244C1847.56,224.647,1848.61,194.025,1850.02,163.439C1850.61,150.887,1851.68,138.335,1852.91,125.818C1853.76,117.148,1855.03,108.502,1856.54,99.9261C1857.78,92.8325,1866.36,86.3624,1873.32,87.4799C1875.72,87.8681,1878.72,90.0092,1879.77,92.1619C1881.81,96.3616,1883.66,101.114,1883.79,105.679C1884.06,115.607,1883.21,125.571,1882.78,135.512C1882.56,140.711,1882.17,145.911,1882.08,151.122C1881.45,184.108,1880.77,217.094,1880.37,250.08C1880.06,275.255,1880.38,300.429,1879.96,325.592C1879.78,335.968,1878.22,346.32,1877.56,356.708C1876.43,374.706,1875.43,392.717,1874.54,410.727C1873.09,439.878,1871.78,469.053,1870.42,498.204C1870.02,506.709,1869.63,515.226,1869.23,524.084C1872.41,524.237,1874.09,522.061,1875.76,520.39C1893.51,502.639,1914.27,489.675,1937.79,481.04C1949.09,476.887,1960.61,473.582,1972.38,478.817C1976.35,480.581,1980.3,483.31,1983.13,486.581C1988.77,493.11,1987.09,501.839,1979.43,505.779C1972.52,509.344,1965.23,512.355,1957.86,514.885C1937.07,522.037,1919.56,534.436,1902.89,548.259C1896.51,553.553,1890.03,558.799,1884.22,564.681C1878.25,570.704,1872.72,577.233,1867.67,584.033C1865.7,586.668,1865.19,590.585,1864.65,594.02C1863.22,603.09,1862.12,612.219,1860.89,621.324C1860.29,625.771,1859.68,630.206,1859.09,634.653C1857.61,645.887,1856.2,657.133,1854.62,668.344C1853.6,675.591,1852.29,682.79,1851.18,690.013C1850.48,694.684,1849.87,699.366,1849.28,704.048C1847.77,716,1846.37,727.964,1844.81,739.916C1843.8,747.633,1842.51,755.326,1841.44,763.032C1841.11,765.373,1841.06,767.749,1840.91,770.125C1840.23,781.242,1839.82,792.394,1838.82,803.488C1837.46,818.592,1835.02,833.627,1834.2,848.755C1833.23,866.518,1833.26,884.352,1833.4,902.151C1833.46,909.257,1836.21,916.009,1839.75,922.22C1843.54,928.879,1849.94,930.208,1856.91,929.926C1868.96,929.432,1878.49,923.467,1887.02,915.609C1896.44,906.927,1902.05,895.775,1907.33,884.305C1916.84,863.66,1923.74,842.085,1930.5,820.475C1938.01,796.429,1944.82,772.16,1952.2,748.068C1954.54,740.433,1957.36,732.893,1960.62,725.587C1963.23,719.717,1967.23,714.8,1973.5,711.988C1978.25,709.859,1982.39,711.388,1986.47,713.2C1989.12,714.365,1989.56,717.082,1989.46,719.882C1989.03,730.752,1989.49,741.574,1987.86,752.503C1985.87,765.831,1983.5,779.031,1979.62,791.877C1974.18,809.875,1967.99,827.662,1962.09,845.532C1958.78,855.602,1955.72,865.766,1951.95,875.671C1945.91,891.587,1937.58,906.363,1928.32,920.644C1918.07,936.431,1906.39,951.018,1892.02,963.206C1886.44,967.935,1880.32,972.099,1874.09,975.922C1863.45,982.416,1851.68,980.463,1840.15,979.522C1832.17,978.875,1826.48,974.252,1820.66,969.041C1806.16,956.065,1799.15,939.925,1795.94,920.997C1790.32,887.705,1792.87,854.26,1792.16,820.875C1792.09,817.31,1792.28,813.746,1792.09,810.193C1792,808.464,1791.33,806.758,1790.8,804.558C1789.21,805.311,1788.19,805.499,1787.62,806.111C1774.87,820.086,1762.34,834.274,1749.39,848.061C1740.2,857.848,1728.31,863.883,1715.46,866.413C1700.04,869.448,1690.55,868.024,1680.03,852.261C1671.81,839.92,1667.88,826.168,1667.2,811.452C1665.22,768.702,1666.31,726.011,1669.26,683.308C1671.43,651.781,1674.17,620.348,1678.3,589.021C1678.55,587.15,1678.6,585.244,1678.62,583.35C1678.62,582.997,1678.09,582.633,1677.69,582.115C1677.11,582.162,1676.33,582.021,1675.78,582.315C1660.09,590.715,1646.19,601.243,1636.43,616.43C1633.89,620.383,1632.16,624.877,1630.14,629.147C1627.01,635.735,1623.29,638.241,1617.64,637.464C1612.35,636.747,1608.28,632.688,1607.25,626.289C1605.41,614.866,1609.45,604.702,1615.09,595.185C1622.74,582.315,1633.38,572.128,1645.56,563.658C1655.67,556.623,1666.01,549.835,1676.7,543.753C1681.96,540.765,1684.01,537.048,1684.55,531.401C1686.33,512.732,1688.16,494.051,1690.43,475.44C1692.68,457.077,1695.5,438.772,1698.03,420.444C1700.16,405.01,1702.19,389.564,1704.34,374.142C1706.18,360.825,1708.41,347.555,1709.96,334.203C1711.62,319.875,1712.63,305.476,1714.05,291.124C1714.73,284.313,1715.7,277.525,1716.61,270.726C1718.44,256.891,1720.25,243.069,1722.18,229.246C1723.82,217.541,1725.65,205.871,1727.26,194.166C1728.13,187.849,1728.79,181.497,1729.47,175.144C1730.33,167.157,1730.9,159.122,1732.03,151.17C1732.89,145.111,1734.3,139.112,1735.7,133.147C1738.24,122.348,1740.93,111.584,1743.63,100.82C1745.43,93.6442,1748.12,86.8094,1752.8,80.998C1754.7,78.6453,1757.03,76.3984,1759.61,74.8808C1766.9,70.6105,1774.25,73.8574,1776.79,81.9156C1779.07,89.1386,1778.94,96.2793,1777.31,103.62C1776.24,108.431,1775.99,113.431,1775.37,118.348C1774.45,125.607,1773.51,132.865,1772.6,140.135C1771.78,146.699,1771.02,153.275,1770.15,159.839C1768.41,172.933,1766.68,186.038,1764.81,199.119C1763.78,206.354,1762.43,213.553,1761.34,220.776C1760.6,225.682,1760.06,230.623,1759.45,235.552C1757.94,247.727,1756.57,259.926,1754.93,272.09C1753.36,283.784,1751.5,295.453,1749.81,307.135C1749.07,312.276,1748.4,317.428,1747.77,322.593C1746.87,329.851,1746.12,337.133,1745.14,344.379C1744.18,351.638,1742.96,358.861,1741.97,366.107C1741.02,373.13,1740.3,380.177,1739.34,387.2C1738.33,394.682,1737.16,402.152,1736.06,409.622C1735.27,414.986,1734.39,420.35,1733.77,425.738C1732.96,432.785,1732.51,439.867,1731.62,446.901C1730.7,454.148,1729.38,461.336,1728.32,468.559C1727.64,473.229,1726.73,477.911,1726.57,482.616C1726.24,492.016,1722.39,501.145,1724.37,511.838C1726.53,510.614,1728.38,509.85,1729.9,508.673C1748.23,494.392,1763.38,477.229,1776.1,457.83C1779.2,453.089,1782.22,448.125,1786.15,444.113C1794.16,435.926,1805.93,437.796,1810.49,447.513C1812.56,451.913,1812.15,456.301,1810.02,460.547C1801.28,477.958,1791.82,494.792,1778.97,509.744C1762.71,528.648,1744.34,544.859,1723.17,557.893C1719.28,560.293,1717.82,563.293,1717.37,567.681C1712.31,617.783,1707.88,667.933,1706.37,718.282C1705.69,741.292,1705.82,764.326,1705.42,787.336C1705.28,795.629,1704.52,803.923,1704.42,812.216C1704.38,814.91,1705.06,817.863,1706.29,820.251C1707.79,823.192,1710.75,824.651,1714.08,823.086C1718.55,820.98,1723.03,818.816,1727.17,816.157C1741.92,806.664,1753.85,794.112,1764.24,780.172C1775.39,765.208,1785.02,749.233,1793.29,732.481C1800.42,718.047,1804.74,702.601,1809.62,687.331C1815.65,668.533,1816.34,649.287,1815.62,629.841C1815.59,628.9,1815.52,627.935,1815.32,627.018C1815.08,625.912,1814.67,624.795,1814,622.63Z" fill="none" stroke="rgb(0,0,0)" stroke-width="3" stroke-linecap="round" stroke-linejoin="round" stroke-dashoffset="4877" stroke-dasharray="4877"/><path id="eybPzgHCqrW4" d="M1554.56,762.937C1542.71,759.925,1534.78,753.573,1529.75,743.75C1525.47,735.421,1525.03,726.457,1525.51,717.363C1526.27,703.247,1529.7,689.707,1534.35,676.437C1539.21,662.591,1543.61,648.557,1549.05,634.934C1558.36,611.712,1568.06,588.631,1578.06,565.704C1591.26,535.423,1604.97,505.367,1618.34,475.169C1624.35,461.582,1630.67,448.088,1635.85,434.184C1642.66,415.914,1648.79,397.374,1654.59,378.752C1657.52,369.329,1660.27,359.683,1659.41,349.543C1659.33,348.601,1659.45,347.637,1659.34,346.696C1658.38,338.332,1653.38,334.544,1645.21,336.226C1638.76,337.555,1633.25,340.814,1628.82,345.637C1619.52,355.754,1610.38,366.036,1601.17,376.235C1599.1,378.517,1597.13,380.929,1594.86,382.987C1591.9,385.681,1588.51,386.893,1584.43,385.222C1580.5,383.611,1579.48,380.411,1579.23,376.682C1578.89,371.647,1579.19,366.659,1581.63,362.118C1591.45,343.814,1602.96,326.768,1618.98,313.192C1628.64,305.005,1639.69,300.146,1652.29,298.299C1674.89,294.994,1690.5,310.287,1694.5,327.05C1696.08,333.65,1696.29,340.649,1696.41,347.484C1696.7,364.812,1695.47,382.152,1690.42,398.751C1685.15,416.103,1679.44,433.442,1672.25,450.053C1652.35,495.956,1632.47,541.894,1608.98,586.137C1595.66,611.218,1585.57,637.71,1575.46,664.179C1571.28,675.178,1566.65,686.013,1562.78,697.118C1560.7,703.094,1559.76,709.47,1558.36,715.681C1558.16,716.587,1558.21,717.587,1558.31,718.516C1559.66,729.821,1565.66,730.398,1572.03,725.61C1578.62,720.646,1584.65,714.928,1590.67,709.27C1599.99,700.506,1608.97,691.365,1618.38,682.695C1620.71,680.554,1624.01,679.025,1627.12,678.249C1632.84,676.825,1638.22,678.637,1641.85,683.166C1645.39,687.601,1644.69,693.295,1642.62,698.035C1639.24,705.811,1635.37,713.458,1630.86,720.634C1615.52,745.056,1599.53,769.066,1584.33,793.57C1572.98,811.874,1564.31,831.52,1558.35,852.271C1555.88,860.871,1555.88,869.588,1558.09,878.222C1559.56,883.928,1564.31,886.645,1569.36,887.869C1573.89,888.975,1578.18,886.657,1581.51,883.446C1583.36,881.669,1584.79,879.387,1586.11,877.152C1593.62,864.506,1600.93,851.742,1608.52,839.155C1610.58,835.743,1613.06,832.438,1615.92,829.673C1621.1,824.673,1629.05,823.544,1635.09,826.767C1641.46,830.167,1643.78,836.143,1643.36,842.919C1643.14,846.601,1642.19,850.613,1640.35,853.754C1629.82,871.764,1619.2,889.728,1608.07,907.373C1601.19,918.29,1591.94,927.16,1581.43,934.783C1555.32,953.688,1520.94,939.242,1516.81,907.291C1514.36,888.304,1515.62,869.364,1519.2,850.577C1524.5,822.756,1535.68,797.158,1549.07,772.43C1550.67,769.536,1552.36,766.748,1554.56,762.937Z" fill="rgba(0,0,0,0)" stroke="rgb(0,0,0)" stroke-width="3" stroke-linecap="round" stroke-linejoin="round" stroke-dashoffset="1968.59" stroke-dasharray="1968.59"/><path id="eybPzgHCqrW5" d="M1565.16,431.986C1567.01,481.171,1561.15,529.614,1550.62,577.576C1546.09,598.198,1542.12,618.973,1536.71,639.371C1528.33,671.004,1519.15,702.449,1509.88,733.847C1496.5,779.126,1482.55,824.24,1469.25,869.531C1463.91,887.718,1458.98,906.07,1455,924.598C1451.7,940.032,1447.78,955.549,1448.6,971.583C1448.87,976.747,1449.2,982.053,1450.61,986.982C1453.26,996.263,1460.39,1001.66,1468.77,1005.75C1482.49,1012.44,1496.09,1009.83,1509.3,1004.67C1527.56,997.546,1542.31,985.323,1555.22,970.771C1558.21,967.395,1561.06,963.866,1564.37,960.831C1570.35,955.36,1580.57,957.996,1583.12,965.595C1583.59,966.983,1583.2,968.936,1582.59,970.371C1571.62,996.557,1554.92,1017.97,1528.71,1030.01C1517.73,1035.06,1505.48,1037.54,1493.66,1040.6C1480.67,1043.95,1467.35,1043.72,1454.08,1042.75C1444.24,1042.04,1435.12,1039.03,1427.05,1033.33C1422.06,1029.81,1418.89,1024.77,1417,1018.99C1414.18,1010.36,1412.9,1001.47,1412.78,992.37C1412.51,972.794,1414.79,953.443,1418.87,934.385C1424.24,909.34,1430.1,884.377,1436.49,859.579C1441.51,840.063,1447.59,820.805,1453.31,801.477C1463.67,766.444,1474.28,731.482,1484.47,696.391C1490.95,674.075,1496.93,651.606,1503.01,629.172C1508.13,610.291,1513.3,591.422,1518.01,572.435C1520.67,561.718,1522.54,550.789,1524.56,539.919C1526.63,528.814,1528.62,517.686,1530.37,506.522C1531.36,500.216,1532.13,493.84,1532.42,487.476C1533.21,470.407,1534.29,453.314,1534.09,436.245C1533.93,421.834,1532.16,407.435,1531.02,393.036C1530.28,383.613,1529.51,374.178,1528.51,364.779C1527.58,356.097,1526.37,347.451,1525.16,338.804C1523.86,329.452,1522.62,320.076,1520.94,310.795C1519.04,300.384,1516.99,289.973,1514.44,279.703C1511.79,268.974,1508.8,258.304,1505.37,247.799C1496.99,222.107,1488.36,196.485,1479.56,170.922C1477.96,166.287,1475.35,161.911,1472.67,157.747C1468.31,150.959,1467.58,143.595,1468.31,135.925C1468.92,129.537,1475.54,123.137,1482.55,121.773C1488.26,120.667,1495.36,124.208,1497.97,130.56C1504.56,146.559,1511.26,162.546,1516.84,178.898C1522.6,195.709,1527.16,212.931,1532.1,230.024C1537.24,247.787,1542.95,265.421,1547.08,283.42C1552.85,308.618,1557.95,334.005,1562.25,359.485C1564.45,372.52,1564.58,385.954,1565.11,399.224C1565.5,410.129,1565.16,421.069,1565.16,431.986Z" fill="rgba(0,0,0,0)" stroke="rgb(0,0,0)" stroke-width="3" stroke-linecap="round" stroke-linejoin="round" stroke-dashoffset="2202.82" stroke-dasharray="2202.82"/><path id="eybPzgHCqrW6" d="M1152.12,622.841C1154.07,611.63,1155.67,601.842,1157.48,592.102C1165.37,549.869,1166.75,507.202,1166.4,464.393C1166.04,419.984,1165.72,375.576,1165.94,331.167C1166.06,309.31,1168.09,287.523,1173.38,266.195C1176.86,252.114,1183.01,239.374,1193.86,229.41C1205.41,218.799,1219.09,215.67,1234.18,219.328C1240.09,220.763,1244.61,224.834,1248.61,229.28C1259.05,240.88,1264.02,254.855,1264.39,270.16C1264.95,292.711,1264.63,315.274,1264.65,337.837C1264.71,390.798,1265.9,443.794,1264.56,496.72C1261.78,606.195,1264.08,715.669,1263.01,825.144C1262.95,830.779,1264.21,835.872,1266.85,840.766C1271.56,849.448,1281.25,849.824,1286.52,841.272C1289.49,836.449,1292.32,831.449,1294.45,826.226C1299.52,813.815,1304.33,801.287,1308.83,788.664C1310.39,784.276,1310.81,779.453,1311.6,774.806C1313.57,763.183,1315.59,751.572,1317.3,739.915C1319.52,724.739,1321.44,709.517,1323.55,694.33C1324.7,686.142,1326.31,678.001,1327.11,669.778C1328.17,658.92,1328.67,648.015,1329.34,637.134C1330.3,621.758,1331.18,606.383,1332.08,590.996C1332.5,583.89,1333.11,576.785,1333.24,569.68C1334.05,526.953,1334.78,484.215,1335.45,441.477C1335.66,428.184,1335.45,414.879,1335.68,401.574C1336.32,366.447,1337.28,331.32,1337.75,296.181C1338.34,253.208,1338.57,210.235,1338.95,167.261C1339.02,159.568,1342.65,154.803,1348.98,154.039C1355.82,153.215,1361.45,156.991,1362.8,164.426C1364.25,172.343,1365.3,180.413,1365.57,188.448C1367.06,233.068,1368.95,277.689,1369.4,322.321C1370.5,433.948,1369.06,545.564,1366.67,657.179C1365.85,695.412,1365.8,733.656,1364.88,771.877C1364.6,783.735,1372.19,789.887,1379.95,795.981C1384.04,799.193,1391.26,797.04,1396.13,792.381C1405.22,783.676,1411.48,773.136,1415.45,761.266C1419.39,749.514,1421.28,737.326,1422.51,725.021C1425.96,690.695,1425.71,656.25,1425.97,621.817C1426.23,588.808,1426.62,555.81,1426.9,522.801C1427.04,506.896,1427.04,490.979,1427.18,475.075C1427.79,406.691,1428.48,338.296,1429.02,269.913C1429.18,249.255,1428.83,228.586,1429.08,207.929C1429.18,199.177,1430.54,190.448,1430.71,181.696C1431.08,164.367,1430.89,147.027,1431.21,129.687C1431.28,125.723,1432.04,121.665,1433.21,117.865C1434.48,113.677,1437.29,110.512,1441.6,108.807C1450.82,105.172,1459.26,109.854,1460.14,119.712C1461.59,136.028,1463.3,152.368,1463.66,168.72C1465.07,232.821,1466.7,296.934,1466.93,361.059C1467.31,464.605,1466.67,568.15,1466.41,671.696C1466.38,687.365,1465.93,703.047,1465.83,718.716C1465.66,741.02,1459.49,761.678,1449.12,781.241C1447.79,783.758,1446.35,786.217,1445.11,788.77C1434.91,809.874,1417.77,824.156,1398.22,835.849C1394.55,838.037,1389.75,839.202,1385.44,839.284C1377.95,839.425,1370.37,840.578,1362.89,837.978C1354.69,835.12,1347.47,830.979,1341.44,824.732C1340.45,823.709,1339.39,822.744,1338.25,821.897C1335.06,819.532,1332.65,819.591,1330.2,822.52C1328.9,824.097,1327.87,826.132,1327.39,828.132C1325.35,836.613,1323.51,845.131,1321.72,853.671C1316.46,878.822,1303.84,899.15,1282.79,914.208C1270.59,922.937,1259.66,921.219,1249.07,912.785C1238.57,904.444,1232.9,893.045,1230.07,880.352C1227.07,866.929,1226.02,853.201,1226.01,839.425C1226,807.357,1225.61,775.288,1226.15,743.232C1226.5,722.363,1228.35,701.529,1229.27,680.672C1230.28,657.662,1231.48,634.651,1231.73,611.618C1232.2,568.88,1232.09,526.13,1232.1,483.38C1232.11,453.935,1231.9,424.478,1231.86,395.033C1231.78,354.424,1231.8,313.827,1231.74,273.218C1231.73,265.29,1228.36,261.149,1221.48,259.29C1216.64,257.984,1212.94,259.419,1210.24,263.113C1206.07,268.854,1203.42,275.195,1202.16,282.406C1199.79,296.099,1200.83,309.828,1200.56,323.544C1199.87,359.624,1199.05,395.692,1198.72,431.772C1198.4,467.146,1198.94,502.531,1198.47,537.905C1198.3,550.634,1196.41,563.351,1195.06,576.044C1193.7,588.761,1192.23,601.466,1190.51,614.135C1188.09,631.746,1185.68,649.38,1182.65,666.885C1181.8,671.802,1181.87,676.084,1183.58,680.707C1192.61,705.294,1199.18,730.515,1203.01,756.443C1206.74,781.629,1208.82,806.957,1208.23,832.402C1207.55,862.341,1205.88,892.233,1198.92,921.525C1192.2,949.782,1183.65,977.403,1168.75,1002.64C1161.31,1015.25,1152.18,1026.38,1139.57,1034.23C1117.69,1047.86,1093.5,1046.54,1073.22,1030.61C1059.73,1020,1049.77,1006.53,1041.86,991.461C1028.72,966.44,1021.06,939.571,1015.13,912.102C1004.99,865.117,1001.75,817.65,1005.14,769.748C1007.62,734.538,1013.71,700.023,1026.56,666.955C1032.8,650.909,1040.86,635.957,1052.26,622.911C1060.23,613.794,1069.98,606.653,1080.94,602.266C1095.7,596.36,1111.31,595.901,1125.78,603.783C1133.4,607.936,1140.13,613.747,1147.24,618.853C1148.61,619.747,1149.78,620.864,1152.12,622.841ZM1157.39,741.914C1156.78,741.832,1156.17,741.738,1155.57,741.656C1154.58,742.903,1153.57,744.138,1152.61,745.408C1145.79,754.502,1139.67,764.242,1132.02,772.559C1113.6,792.546,1090.69,800.428,1063.77,794.852C1059.03,793.875,1053.93,793.17,1050.36,788.993C1049.44,787.923,1046.8,786.746,1046.35,787.158C1045.15,788.241,1044.57,790.134,1044.03,791.793C1043.76,792.628,1044.13,793.664,1044.19,794.616C1044.94,807.874,1045.87,821.132,1046.39,834.402C1047.4,859.847,1050.68,884.987,1056.55,909.761C1061.7,931.536,1068.84,952.617,1079.87,972.204C1085.22,981.721,1091.01,990.979,1099.76,997.92C1109.7,1005.8,1117.72,1005.42,1126.83,996.449C1133.85,989.532,1138.97,981.262,1143.13,972.427C1152.12,953.37,1156.6,933.089,1159.91,912.373C1167.57,864.412,1167.02,816.415,1161.55,768.348C1160.53,759.49,1158.79,750.726,1157.39,741.914ZM1054.28,714.928C1054.22,725.668,1058.95,742.361,1062.97,749.149C1066.11,754.455,1070.81,756.655,1076.74,756.031C1085.94,755.055,1094.09,751.89,1100.66,744.902C1117.73,726.762,1128.69,705.094,1137.65,682.213C1139.16,678.378,1138.66,674.731,1136.7,671.261C1132.37,663.638,1128.34,655.803,1123.44,648.568C1120.03,643.533,1115.79,638.828,1111.13,634.91C1102.88,627.97,1093.75,628.958,1086.59,636.992C1083.62,640.345,1080.88,643.98,1078.5,647.78C1069.89,661.567,1064.17,676.648,1059.73,692.189C1057.31,700.588,1055.62,709.199,1054.28,714.928Z" fill="rgba(0,0,0,0)" stroke="rgb(0,0,0)" stroke-width="3" stroke-linecap="round" stroke-linejoin="round" stroke-dashoffset="7222.29" stroke-dasharray="7222.29"/><path id="eybPzgHCqrW7" d="M1043.74,440.031C1049.37,437.819,1053.42,435.819,1057.7,434.655C1062.92,433.243,1068.32,431.784,1073.67,431.678C1089.56,431.396,1100.6,439.019,1105.37,454.159C1109.13,466.123,1112.06,478.393,1114.58,490.698C1118.58,510.226,1121.91,529.883,1125.54,549.482C1126.6,555.175,1126.75,560.81,1124.74,566.339C1121.26,575.903,1113.15,581.091,1103.17,580.138C1093.37,579.209,1086.25,572.398,1085.1,562.281C1082.64,540.612,1079.65,519.002,1079.8,497.097C1079.84,491.709,1079.22,486.098,1077.67,480.969C1074.65,470.911,1066.84,468.311,1058.08,475.91C1053.44,479.922,1049.84,485.886,1047.54,491.674C1040.54,509.249,1033.48,526.883,1028.15,545C1021.03,569.233,1015.53,593.937,1009.3,618.43C1005.17,634.723,1000.94,650.98,996.868,667.285C988.704,699.953,980.317,732.574,972.564,765.349C963.718,802.746,955.695,840.343,946.849,877.741C941.767,899.233,935.073,920.279,925.65,940.336C922.909,946.159,919.862,951.794,914.298,955.535C909.569,958.723,904.205,961.041,898.934,958.406C893.323,955.594,891.641,949.724,892.441,943.724C893.276,937.43,894.676,931.184,896.193,925.008C899.922,909.868,904.04,894.81,907.687,879.646C913.604,855.095,919.18,830.473,925.05,805.91C930.756,782.042,936.637,758.232,942.449,734.386C945.625,721.375,948.966,708.412,951.942,695.354C954.342,684.825,956.189,674.167,958.518,663.615C959.836,657.662,961.906,651.874,963.189,645.922C965.106,636.993,966.4,627.923,968.353,619.006C970.67,608.466,973.353,597.996,975.999,587.526C979.105,575.256,982.375,563.034,985.528,550.776C987.751,542.129,989.963,533.495,992.092,524.825C995.21,512.061,998.421,499.309,1001.26,486.474C1003.48,476.393,1004.97,466.135,1007.21,456.053C1010.21,442.536,1013.56,429.102,1016.89,415.668C1018.34,409.833,1020.98,404.786,1026.24,401.198C1030.41,398.351,1033.6,397.551,1036.69,401.057C1039.24,403.951,1041.58,407.715,1042.27,411.421C1043.47,417.891,1043.37,424.62,1043.72,431.231C1043.85,433.796,1043.74,436.349,1043.74,440.031Z" fill="rgba(0,0,0,0)" stroke="rgb(0,0,0)" stroke-width="3" stroke-linecap="round" stroke-linejoin="round" stroke-dashoffset="1500.92" stroke-dasharray="1500.92"/><path id="eybPzgHCqrW8" d="M715.185,543.352C710.032,542.894,706.291,542.564,702.55,542.211C696.41,541.623,690.175,541.529,684.163,540.305C670.2,537.447,659.636,529.306,651.813,517.589C638.049,496.979,634.143,473.863,635.026,449.618C635.649,432.443,638.743,415.561,643.107,399.057C653.836,358.448,665.318,318.051,676.411,277.536C683.869,250.303,691.328,223.069,698.398,195.742C699.974,189.625,699.915,183.084,700.597,176.743C701.444,168.85,702.28,160.944,703.174,152.545C712.985,153.345,722.067,154.086,731.478,154.851C731.478,162.791,731.736,170.567,731.431,178.32C730.654,197.659,725.655,216.282,721.325,235.01C713.749,267.843,706.291,300.711,698.292,333.438C692.775,356.025,686.269,378.376,680.47,400.904C675.976,418.385,671.764,435.936,671.529,454.159C671.341,468.969,674.164,482.886,682.481,495.473C685.916,500.661,690.445,503.308,696.527,503.92C706.444,504.908,716.361,505.884,726.219,507.261C748.029,510.319,756.629,527.071,755.911,542.929C755.382,554.704,753.664,566.621,750.817,578.056C741.077,617.206,731.348,656.403,720.208,695.165C708.279,736.668,694.974,777.771,680.034,818.321C672,840.131,664.694,862.212,657.071,884.163C656.071,887.045,654.871,889.88,654.248,892.845C653.954,894.245,654.33,896.457,655.283,897.268C656.212,898.068,658.495,898.068,659.777,897.504C661.647,896.68,663.4,895.257,664.765,893.704C675.552,881.446,682.705,867.059,688.787,852.071C701.915,819.733,713.561,786.876,724.443,753.714C730.137,736.374,737.43,719.563,743.971,702.506C755.782,671.708,766.828,640.675,774.828,608.583C781.945,580.044,790.179,551.775,797.626,523.318C800.449,512.531,802.378,501.52,804.884,490.65C808.413,475.392,812.166,460.194,815.73,444.948C821.554,419.985,827.141,394.975,833.141,370.059C841.529,335.202,851.563,300.793,863.527,266.996C873.985,237.457,885.961,208.517,899.701,180.331C903.148,173.261,907.418,166.697,913.688,161.685C927.522,150.639,943.192,153.368,952.615,168.367C957.297,175.826,959.473,184.107,959.897,192.671C960.297,200.93,960.426,209.364,959.238,217.517C956.415,237.009,952.697,256.361,949.439,275.783C944.721,303.875,939.286,331.873,935.604,360.107C929.005,410.726,923.758,461.523,917.394,512.178C913.935,539.729,908.9,567.092,905.371,594.631C899.466,640.792,894.348,687.06,888.608,733.245C884.714,764.584,880.208,795.852,876.197,827.179C871.632,862.8,869.409,898.574,869.821,934.489C869.915,942.3,870.832,950.123,871.691,957.911C871.997,960.675,873.126,963.381,874.079,966.04C876.761,973.533,873.573,979.886,865.903,982.097C855.528,985.085,845.94,979.898,841.67,968.84C837.882,959.029,836.105,948.759,835.741,938.312C834.882,914.067,836.376,889.904,838.788,865.8C840.54,848.366,843.105,831.026,845.07,813.615C846.069,804.675,846.411,795.652,847.281,786.688C848.293,776.324,849.599,765.995,850.74,755.643C851.493,748.808,852.481,741.985,852.81,735.139C853.716,716.646,854.422,698.153,854.998,679.648C855.257,671.108,855.022,662.544,854.998,654.003C854.963,633.546,852.857,613.253,848.716,593.255C847.611,587.89,844.246,582.95,841.693,577.938C840.176,574.95,837.552,574.797,835.153,576.785C832.447,579.02,829.659,581.338,827.553,584.114C817.836,596.878,812.248,611.771,806.402,626.488C800.661,640.922,795.203,655.474,789.732,670.014C783.85,685.672,778.004,701.353,772.322,717.093C764.381,739.056,756.617,761.09,748.712,783.076C739.783,807.886,731.372,832.908,721.655,857.412C711.832,882.187,698.409,904.868,678.846,923.584C667.2,934.724,653.271,936.489,638.508,934.877C630.779,934.03,625.038,928.76,621.462,922.066C615.521,910.938,613.239,899.127,615.898,886.41C621.38,860.106,629.861,834.731,638.578,809.392C648.613,780.229,659.059,751.173,667.953,721.645C679.528,683.26,689.892,644.498,700.492,605.818C705.138,588.89,709.115,571.774,713.291,554.716C714.079,551.363,714.432,547.881,715.185,543.352ZM828.988,527.095C831.259,527.236,832.212,527.483,833.094,527.33C847.575,524.683,858.974,530.294,868.821,540.376C870.068,541.658,871.891,542.505,873.597,543.164C876.444,544.258,878.161,543.164,878.408,540.023C879.008,532.459,879.491,524.883,880.267,517.342C881.738,503.19,883.349,489.05,884.961,474.91C886.655,460.111,888.408,445.324,890.16,430.537C890.36,428.89,890.643,427.267,890.925,425.631C891.949,419.82,893.431,414.044,893.937,408.185C895.09,394.998,895.572,381.776,897.795,368.659C900.407,353.307,901.783,337.755,904.383,322.403C906.971,307.099,910.383,291.923,913.488,276.701C916.641,261.267,919.994,245.868,923.017,230.398C924.146,224.657,924.746,218.787,925.264,212.952C925.381,211.635,924.182,209.07,923.476,209.023C921.888,208.929,919.676,209.6,918.711,210.776C916.794,213.117,915.123,215.858,914.1,218.705C907.924,235.998,901.536,253.244,896.031,270.76C889.384,291.888,883.396,313.216,877.432,334.555C872.797,351.131,868.491,367.8,864.339,384.493C861.433,396.163,859.269,408.009,856.363,419.679C852.21,436.36,847.705,452.947,843.317,469.569C839.105,485.545,834.812,501.508,830.647,517.495C829.918,520.389,829.624,523.389,828.988,527.095Z" fill="rgba(0,0,0,0)" stroke="rgb(0,0,0)" stroke-width="3" stroke-linecap="round" stroke-linejoin="round" stroke-dashoffset="4957.39" stroke-dasharray="4957.39"/><path id="eybPzgHCqrW9" d="M779.283,27.9667C782.706,26.2492,785.976,24.3787,789.423,22.9553C793.117,21.426,796.893,19.7908,800.799,19.085C820.621,15.5087,835.502,33.531,828.738,52.6002C825.503,61.7172,819.903,69.3873,813.88,76.7161C799.199,94.5855,782.847,110.702,763.107,123.066C753.826,128.877,744.226,134.041,733.263,136.018C722.804,137.9,712.935,136.924,704.182,130.195C703.065,129.336,701.853,128.395,700.535,127.995C692.089,125.489,686.619,119.278,681.219,112.89C676.467,107.279,671.69,101.679,666.667,96.3147C664.432,93.9384,661.774,91.7386,658.915,90.2093C653.304,87.2095,649.033,82.998,645.445,77.8337C636.058,64.3288,628.988,49.5651,622.035,34.7427C619.824,30.0371,619.565,25.0257,621.423,20.179C624.882,11.1796,635.023,7.4505,643.892,11.5796C647.728,13.3677,651.786,14.6735,655.574,16.544C659.374,18.4262,662.962,20.7319,667.691,23.4611C672.361,20.379,678.443,17.7086,682.713,13.2736C691.301,4.36836,712.582,5.39182,720.346,19.6614C722.134,22.9435,723.922,26.2139,726.04,30.0959C730.322,27.0256,734.039,24.3552,738.003,21.5083C737.192,19.579,736.451,18.1321,735.968,16.6028C734.121,10.7326,738.121,3.58018,744.038,2.02735C747.52,1.12154,750.191,2.38027,751.426,5.70944C752.073,7.46226,752.379,9.32095,752.838,11.1326C758.284,12.5795,764.166,12.8972,768.519,15.6381C772.801,18.3674,775.554,23.5317,779.283,27.9667Z" transform="matrix(1 0 0 1 0 -1.744408)" fill="rgba(0,0,0,0)" stroke="rgb(0,0,0)" stroke-width="3" stroke-linecap="round" stroke-linejoin="round" stroke-dashoffset="594.69" stroke-dasharray="594.69"/><path id="eybPzgHCqrW10" d="M540.328,482.039C537.764,485.157,535.74,488.074,533.27,490.544C523.377,500.438,513.424,510.272,503.343,519.978C498.214,524.907,492.885,529.636,487.403,534.177C484.215,536.823,482.921,540.023,482.427,543.988C478.709,574.162,474.933,604.324,471.098,634.475C463.24,696.436,455.381,758.396,447.417,820.344C444.876,840.131,442.1,859.883,439.183,879.611C436.865,895.315,434.018,910.938,431.689,926.643C430.854,932.254,430.924,938.007,430.501,943.689C430.219,947.477,430.16,951.335,429.324,955.005C426.983,965.299,415.325,970.804,405.82,966.405C402.032,964.652,399.762,962.04,399.938,957.605C400.574,941.971,400.315,926.243,401.868,910.703C406.044,869.117,410.738,827.591,415.69,786.1C419.408,754.984,423.89,723.951,427.936,692.871C430.936,669.79,433.501,646.651,436.783,623.617C440.5,597.549,444.853,571.574,448.805,545.529C449.758,539.2,450.582,532.8,450.782,526.424C451.558,501.661,455.687,477.287,459.016,452.829C463.157,422.479,468.063,392.234,471.957,361.859C477.003,322.521,481.344,283.1,486.038,243.727C489.097,218.023,491.849,192.283,495.473,166.662C498.025,148.581,501.684,130.641,505.119,112.689C505.766,109.277,507.295,105.913,509.025,102.878C511.742,98.1253,516.271,96.0549,521.671,96.6313C527.141,97.2195,531.176,100.396,532.458,105.654C533.611,110.419,534.282,115.548,533.893,120.406C531.964,144.546,530.211,168.732,527.27,192.766C523.671,222.222,518.977,251.538,514.754,280.924C505.872,342.755,498.225,404.739,492.167,466.911C491.708,471.581,491.167,476.251,490.661,480.922C491.108,481.192,491.544,481.463,491.991,481.733C493.296,480.38,494.755,479.157,495.873,477.663C507.531,462.076,519.377,446.63,530.658,430.784C539.87,417.855,548.61,404.574,557.139,391.187C566.397,376.647,571.914,360.365,576.973,344.061C588.054,308.369,595.501,271.807,599.454,234.704C601.971,211.117,602.418,187.154,597.442,163.756C593.901,147.11,591.301,130.017,583.584,114.536C579.361,106.066,574.691,97.7959,569.809,89.6906C567.162,85.2909,565.091,80.856,565.115,75.7387C565.174,61.9397,579.231,53.5403,592.207,59.481C597.783,62.0338,601.747,66.2453,605.041,71.3978C618.029,91.714,624.875,114.254,630.557,137.464C638.674,170.555,638.945,203.894,634.639,237.257C630.145,272.089,624.405,306.816,613.311,340.32C604.641,366.483,594.242,391.963,580.925,416.15C574.985,426.949,568.55,437.466,562.362,448.136C561.562,449.524,560.95,451.03,560.068,452.853C561.915,453.982,563.397,455.123,565.044,455.865C581.584,463.335,595.183,474.487,606.971,488.192C620.393,503.802,632.086,520.436,638.839,540.023C648.132,566.998,653.614,594.702,650.179,623.323C647.285,647.404,641.451,670.861,633.592,693.895C624.828,719.575,613.029,743.903,602.477,768.795C589.889,798.511,578.22,828.603,566.079,858.506C560.633,871.917,554.821,885.187,549.516,898.656C539.47,924.184,532.258,950.453,529.894,977.886C528.611,992.732,530.07,1007.28,535.446,1021.32C538.881,1030.29,544.587,1037.38,552.774,1042.35C562.009,1047.98,571.738,1049.21,582.161,1045.69C599.559,1039.83,613.535,1029.11,625.487,1015.57C631.287,1009,636.463,1001.9,642.039,995.12C644.439,992.203,646.827,989.132,649.744,986.791C655.814,981.933,662.096,983.803,663.872,991.262C664.931,995.72,665.202,1000.73,664.378,1005.23C661.99,1018.33,655.555,1029.76,647.45,1040.14C636.027,1054.76,623.793,1068.29,606.594,1076.9C590.584,1084.91,574.491,1088.07,557.115,1083.62C532.823,1077.41,513.495,1064.26,501.143,1042.1C495.814,1032.55,493.614,1021.92,491.579,1011.1C487.579,989.791,491.461,969.004,494.308,948.206C495.708,937.995,499.578,928.125,502.46,918.126C511.789,885.81,523.482,854.413,538.034,824.038C544.563,810.404,549.692,796.099,555.739,782.229C561.962,767.948,568.715,753.89,574.879,739.585C584.325,717.658,593.972,695.777,602.547,673.508C607.018,661.873,610.112,649.58,612.476,637.322C614.123,628.817,614.041,619.841,613.688,611.124C613.241,600.266,612.617,589.267,610.464,578.667C605.994,556.693,598.348,536.023,583.631,518.319C573.679,506.355,562.433,495.932,550.21,486.498C547.516,484.415,543.869,483.592,540.328,482.039Z" transform="matrix(1 0 0 1 0.675357 0)" fill="rgba(0,0,0,0)" stroke="rgb(0,0,0)" stroke-width="3" stroke-linecap="round" stroke-linejoin="round" stroke-dashoffset="4348.35" stroke-dasharray="4348.35"/><path id="eybPzgHCqrW11" d="M251.134,483.935C261.945,489.464,272.039,494.652,282.156,499.804C292.002,504.816,300.413,511.627,307.977,519.662C326.823,539.696,343.104,561.471,353.598,587.092C357.727,597.174,361.491,607.456,364.726,617.867C374.09,648.053,381.16,678.839,386.56,709.942C392.489,744.14,391.454,778.585,387.583,812.923C383.266,851.273,374.255,888.6,361.526,925.021C356.256,940.091,348.492,953.984,340.681,967.842C331.234,984.582,322.07,1001.49,309.859,1016.49C290.037,1040.86,265.992,1059.96,237.112,1072.21C215.196,1081.52,192.315,1083.9,168.905,1076.72C155.012,1072.45,141.189,1068.28,129.296,1059.54C109.462,1044.98,94.6042,1026.59,86.546,1003.14C72.6058,962.548,69.9001,921.057,76.8879,878.789C85.4167,827.158,98.651,776.679,115.285,727.141C123.132,703.778,132.743,681.003,141.895,658.087C156.859,620.643,172.069,583.293,187.233,545.931C190.174,538.672,193.409,531.543,196.421,524.309C197.585,521.521,198.514,518.65,199.914,514.827C191.244,516.25,186.304,521.203,182.28,526.955C176.975,534.531,171.716,542.213,167.364,550.342C159.764,564.517,152.894,579.081,145.695,593.468C138.389,608.067,131.272,622.772,123.579,637.171C121.414,641.218,118.014,645.018,114.309,647.723C106.309,653.582,97.2982,649.37,96.0512,639.5C95.71,636.771,96.1453,633.795,96.8511,631.101C100.957,615.431,108.286,601.056,114.862,586.351C120.461,573.834,126.002,561.165,130.037,548.095C139.507,517.509,146.506,486.217,150.659,454.502C155.941,414.175,157.906,373.602,154.153,332.958C152.447,314.465,148.4,296.395,143.26,278.573C140.895,270.374,138.378,262.198,135.66,254.104C132.837,245.67,128.167,238.211,122.238,231.635C114.873,223.483,107.121,222.401,97.3805,227.671C89.0282,232.188,82.4169,238.6,77.3584,246.505C65.2769,265.362,54.8424,285.008,49.7722,307.089C46.7488,320.264,43.0079,333.31,40.7257,346.615C36.7496,369.884,36.3496,393.494,38.0906,416.952C40.1023,444.173,43.5255,471.277,46.3959,498.428C46.6665,501.016,47.3841,503.557,47.8076,506.122C48.4193,509.863,49.1369,513.615,49.4545,517.391C50.2074,526.379,47.2194,531.932,40.7022,534.225C34.8909,536.272,28.8913,533.637,23.6799,526.85C18.6685,520.321,15.5864,512.862,13.5865,505.016C8.04573,483.347,4.95183,461.29,3.12843,438.997C0.528614,407.317,2.69317,375.896,6.84581,344.51C10.5985,316.112,17.9862,288.655,29.1148,262.316C36.8084,244.105,46.443,226.93,61.3007,213.272C69.606,205.649,78.7583,199.167,89.287,195.297C110.027,187.662,128.519,192.285,144.46,207.319C156.988,219.142,165.458,233.529,170.799,249.846C188.374,303.56,196.162,358.426,189.539,414.834C186.88,437.456,183.316,459.972,180.233,482.547C179.986,484.323,180.198,486.147,180.198,488.511C184.68,486.77,188.539,484.982,192.562,483.794C197.773,482.241,203.079,480.629,208.443,480.053C213.443,479.512,215.984,477.277,217.737,472.783C222.63,460.184,227.795,447.679,232.959,435.186C243.111,410.634,253.499,386.177,263.498,361.555C271.968,340.675,280.12,319.653,288.237,298.619C304.989,255.21,323.917,212.766,344.175,170.898C350.362,158.099,355.844,144.959,362.315,132.313C365.62,125.855,370.185,119.984,374.62,114.185C380.96,105.903,394.712,107.891,398.383,119.079C400.959,126.902,403.676,134.725,405.523,142.724C408.547,155.782,410.958,168.981,413.523,182.133C414.287,186.062,414.805,190.05,415.299,194.026C417.64,212.79,420.828,231.424,421.699,250.41C422.887,276.22,425.675,301.96,426.969,327.77C428.11,350.286,428.345,372.861,428.616,395.424C429.016,427.715,429.098,460.007,429.274,492.299C429.369,509.157,429.404,526.026,429.416,542.884C429.416,550.366,423.193,558.247,415.993,560.047C411.146,561.259,406.9,559.33,403.982,553.401C399.9,545.119,396.124,536.637,392.771,528.038C387.513,514.556,383.525,500.534,377.561,487.394C365.479,460.737,351.433,435.221,330.576,414.046C320.682,403.999,309.389,397.482,295.178,396.271C288.296,395.682,288.143,395.435,285.461,401.635C279.332,415.787,273.38,430.009,267.368,444.208C262.463,455.784,257.557,467.371,252.699,478.971C252.075,480.441,251.711,482.041,251.134,483.935ZM361.503,772.279C361.397,749.198,358.597,726.353,355.715,703.496C352.092,674.804,343.81,647.394,333.034,620.784C327.635,607.456,320.2,594.962,313.624,582.116C301.507,558.471,284.673,538.837,263.086,523.356C257.299,519.203,251.134,515.556,243.652,515.344C237.159,515.156,236.782,515.38,234.171,521.485C224.748,543.507,215.325,565.541,205.961,587.586C184.904,637.148,162.952,686.332,143.954,736.752C124.99,787.102,110.45,838.616,102.451,891.835C100.592,904.211,99.8627,916.904,100.216,929.409C100.686,946.231,103.451,962.842,107.05,979.394C111.497,999.828,120.649,1017.26,135.613,1031.61C147.683,1043.19,161.529,1051.04,178.798,1052.65C201.961,1054.81,223.583,1049.98,244.358,1040.37C257.275,1034.39,267.521,1024.7,277.262,1014.66C290.861,1000.65,301.307,984.182,311.812,967.842C325.505,946.561,336.187,923.962,341.645,899.082C345.492,881.483,349.645,863.955,353.503,846.368C358.856,821.981,361.62,797.277,361.503,772.279ZM306.671,355.838C307.201,356.168,307.742,356.744,308.377,356.85C329.082,360.344,345.351,371.496,358.444,387.201C368.902,399.753,378.278,413.199,388.148,426.257C389.207,427.657,390.301,429.033,392.23,431.515C392.524,428.562,392.877,427.01,392.783,425.48C392.195,415.999,391.63,406.517,390.83,397.059C389.501,381.46,387.995,365.861,386.583,350.274C384.831,330.899,383.36,311.5,381.301,292.149C378.325,264.068,374.549,236.059,374.114,207.755C374.078,205.543,373.726,203.331,373.443,200.273C367.185,208.919,307.342,348.886,306.671,355.838Z" fill="rgba(0,0,0,0)" stroke="rgb(0,0,0)" stroke-width="3" stroke-linecap="round" stroke-linejoin="round" stroke-dashoffset="6114.03" stroke-dasharray="6114.03"/></g></g></svg>