<svg width="24" height="29" viewBox="0 0 24 29" fill="none" xmlns="http://www.w3.org/2000/svg">
<path fill-rule="evenodd" clip-rule="evenodd" d="M6.26554 3.73991C8.20193 2.42196 10.4754 2 12 2C13.5246 2 15.7981 2.42196 17.7345 3.73991C19.7426 5.10674 21.3333 7.41189 21.3333 10.9375C21.3333 13.9379 21.444 15.7634 21.5728 16.8153C21.5948 16.9944 21.6166 17.1453 21.6372 17.2713C21.9865 17.3752 22.3532 17.5423 22.6957 17.7966C23.4557 18.3609 24 19.2894 24 20.5625C24 21.8356 23.4557 22.7641 22.6957 23.3284C22.0037 23.8422 21.2134 24 20.6667 24H3.33333C2.78664 24 1.99627 23.8422 1.30426 23.3284C0.544266 22.7641 0 21.8356 0 20.5625C0 19.2894 0.544266 18.3609 1.30426 17.7966C1.64683 17.5423 2.0135 17.3752 2.36278 17.2713C2.38345 17.1453 2.40524 16.9944 2.42717 16.8153C2.55596 15.7634 2.66667 13.9379 2.66667 10.9375C2.66667 7.41189 4.25735 5.10674 6.26554 3.73991ZM2.24993 17.784C2.2499 17.7839 2.25065 17.7818 2.25224 17.778C2.25075 17.7821 2.24995 17.7841 2.24993 17.784ZM21.7501 17.784C21.75 17.7841 21.7492 17.7821 21.7478 17.778C21.7494 17.7819 21.7501 17.784 21.7501 17.784ZM7.73446 6.03509C6.40931 6.93701 5.33333 8.41311 5.33333 10.9375C5.33333 13.9871 5.22182 15.9429 5.07283 17.1597C4.99932 17.7601 4.91067 18.2332 4.80182 18.586C4.75003 18.7539 4.67155 18.9691 4.54465 19.171C4.47957 19.2746 4.1005 19.875 3.33333 19.875C3.29092 19.875 3.20585 19.8829 3.10588 19.9123C3.00776 19.9412 2.92447 19.9823 2.86241 20.0284C2.80518 20.0709 2.76575 20.1171 2.73703 20.1745C2.70887 20.2308 2.66667 20.3463 2.66667 20.5625C2.66667 20.7787 2.70887 20.8942 2.73703 20.9505C2.76575 21.0079 2.80518 21.0541 2.86241 21.0966C2.92447 21.1427 3.00776 21.1838 3.10588 21.2127C3.20585 21.2421 3.29092 21.25 3.33333 21.25H20.6667C20.7091 21.25 20.7941 21.2421 20.8941 21.2127C20.9922 21.1838 21.0755 21.1427 21.1376 21.0966C21.1948 21.0541 21.2343 21.0079 21.263 20.9505C21.2911 20.8942 21.3333 20.7787 21.3333 20.5625C21.3333 20.3463 21.2911 20.2308 21.263 20.1745C21.2343 20.1171 21.1948 20.0709 21.1376 20.0284C21.0755 19.9823 20.9922 19.9412 20.8941 19.9123C20.7941 19.8829 20.7091 19.875 20.6667 19.875C19.8995 19.875 19.5204 19.2746 19.4553 19.171C19.3285 18.9691 19.25 18.7539 19.1982 18.586C19.0893 18.2332 19.0007 17.7601 18.9272 17.1597C18.7782 15.9429 18.6667 13.9871 18.6667 10.9375C18.6667 8.41311 17.5907 6.93701 16.2655 6.03509C14.8686 5.08429 13.1421 4.75 12 4.75C10.8579 4.75 9.1314 5.08429 7.73446 6.03509Z" fill="#4671B1"/>
<path fill-rule="evenodd" clip-rule="evenodd" d="M6.38385 26.318C5.33569 24.8623 5 23.1574 5 22H7.8C7.8 22.7093 8.02431 23.8044 8.65615 24.682C9.23659 25.4881 10.2163 26.2 12 26.2C13.7837 26.2 14.7634 25.4881 15.3439 24.682C15.9757 23.8044 16.2 22.7093 16.2 22H19C19 23.1574 18.6643 24.8623 17.6161 26.318C16.5166 27.8452 14.6963 29 12 29C9.30371 29 7.48341 27.8452 6.38385 26.318Z" fill="#4671B1"/>
<path fill-rule="evenodd" clip-rule="evenodd" d="M10.9487 3.11241C10.747 3.39262 10.6667 3.76892 10.6667 4H8C8 3.34219 8.18637 2.38516 8.78462 1.55426C9.43182 0.655377 10.4988 0 12 0C13.5012 0 14.5682 0.655377 15.2154 1.55426C15.8136 2.38516 16 3.34219 16 4H13.3333C13.3333 3.76892 13.253 3.39262 13.0513 3.11241C12.8985 2.90018 12.6321 2.66667 12 2.66667C11.3679 2.66667 11.1015 2.90018 10.9487 3.11241Z" fill="#4671B1"/>
</svg>
