<svg width="201" height="36" viewBox="0 0 201 36" fill="none" xmlns="http://www.w3.org/2000/svg">
<path d="M56.39 23.074H63.672V26H52.606V11.48H56.39V23.074ZM75.064 11.48V14.406H70.334V26H66.55V14.406H61.798V11.48H75.064ZM89.3168 11.48C91.5901 11.48 93.3281 12.1107 94.5308 13.372C95.7481 14.6333 96.3568 16.4227 96.3568 18.74C96.3568 21.0573 95.7481 22.8467 94.5308 24.108C93.3281 25.3693 91.5901 26 89.3168 26H83.1568V11.48H89.3168ZM88.9428 23.14C90.1748 23.14 91.0694 22.7733 91.6268 22.04C92.1988 21.292 92.4848 20.192 92.4848 18.74C92.4848 17.288 92.1988 16.1953 91.6268 15.462C91.0694 14.714 90.1748 14.34 88.9428 14.34H86.9408V23.14H88.9428ZM104.052 26.22C102.218 26.22 100.766 25.7213 99.6958 24.724C98.6398 23.7267 98.1118 22.3187 98.1118 20.5C98.1118 19.2973 98.3538 18.2707 98.8378 17.42C99.3365 16.5547 100.011 15.902 100.862 15.462C101.727 15.0073 102.732 14.78 103.876 14.78C105.034 14.78 106.017 15.0073 106.824 15.462C107.645 15.902 108.268 16.518 108.694 17.31C109.119 18.0873 109.332 18.982 109.332 19.994C109.332 20.2727 109.317 20.544 109.288 20.808C109.273 21.0573 109.258 21.27 109.244 21.446H101.742C101.844 22.2087 102.094 22.7587 102.49 23.096C102.886 23.4187 103.406 23.58 104.052 23.58C104.609 23.58 105.049 23.47 105.372 23.25C105.709 23.03 105.958 22.722 106.12 22.326L109.112 23.316C108.906 23.9467 108.547 24.482 108.034 24.922C107.535 25.3473 106.934 25.67 106.23 25.89C105.54 26.11 104.814 26.22 104.052 26.22ZM103.876 17.398C102.688 17.398 101.984 18.08 101.764 19.444H105.79C105.628 18.08 104.99 17.398 103.876 17.398ZM116.044 26.22C114.944 26.22 113.925 26.044 112.986 25.692C112.047 25.3253 111.263 24.8047 110.632 24.13L112.392 22.062C112.759 22.5313 113.243 22.9273 113.844 23.25C114.46 23.558 115.142 23.712 115.89 23.712C116.345 23.712 116.719 23.646 117.012 23.514C117.305 23.382 117.452 23.1767 117.452 22.898C117.452 22.7073 117.379 22.546 117.232 22.414C117.085 22.282 116.792 22.172 116.352 22.084L114.812 21.776C113.433 21.4973 112.451 21.0867 111.864 20.544C111.292 19.9867 111.006 19.2607 111.006 18.366C111.006 17.7647 111.189 17.1927 111.556 16.65C111.923 16.1073 112.487 15.66 113.25 15.308C114.013 14.956 114.988 14.78 116.176 14.78C118.449 14.78 120.107 15.4107 121.148 16.672L119.366 18.696C119.014 18.256 118.559 17.9113 118.002 17.662C117.445 17.4127 116.887 17.288 116.33 17.288C115.259 17.288 114.724 17.5593 114.724 18.102C114.724 18.2927 114.812 18.4613 114.988 18.608C115.179 18.7547 115.523 18.872 116.022 18.96L118.024 19.356C119.153 19.576 119.967 19.9573 120.466 20.5C120.965 21.028 121.214 21.6733 121.214 22.436C121.214 23.5067 120.781 24.4087 119.916 25.142C119.065 25.8607 117.775 26.22 116.044 26.22ZM125.025 13.724C124.262 13.724 123.705 13.5847 123.353 13.306C123.015 13.0127 122.847 12.558 122.847 11.942C122.847 11.3113 123.015 10.8567 123.353 10.578C123.705 10.2847 124.262 10.138 125.025 10.138C125.773 10.138 126.323 10.2847 126.675 10.578C127.027 10.8567 127.203 11.3113 127.203 11.942C127.203 12.558 127.027 13.0127 126.675 13.306C126.323 13.5847 125.773 13.724 125.025 13.724ZM126.895 15V26H123.155V15H126.895ZM136.421 23.558C137.697 23.558 138.672 23.8293 139.347 24.372C140.036 24.9 140.381 25.6627 140.381 26.66C140.381 28.0387 139.831 29.058 138.731 29.718C137.646 30.3927 136.179 30.73 134.331 30.73C132.336 30.73 130.899 30.4807 130.019 29.982C129.139 29.4833 128.699 28.8087 128.699 27.958C128.699 27.4593 128.86 27.034 129.183 26.682C129.52 26.33 130.056 26.088 130.789 25.956C129.718 25.56 129.183 24.8193 129.183 23.734C129.183 23.2207 129.337 22.7733 129.645 22.392C129.953 21.996 130.378 21.71 130.921 21.534C129.748 20.8887 129.161 19.884 129.161 18.52C129.161 17.332 129.623 16.4153 130.547 15.77C131.486 15.11 132.798 14.78 134.485 14.78C135.336 14.78 136.106 14.868 136.795 15.044C136.854 14.516 137 14.0247 137.235 13.57C137.484 13.1153 137.822 12.7487 138.247 12.47C138.687 12.1767 139.222 12.03 139.853 12.03C139.897 12.03 139.948 12.0373 140.007 12.052C140.066 12.052 140.132 12.052 140.205 12.052L140.513 14.56C140.352 14.516 140.176 14.494 139.985 14.494C139.472 14.494 139.061 14.5967 138.753 14.802C138.445 15.0073 138.24 15.2713 138.137 15.594C139.237 16.2393 139.787 17.2147 139.787 18.52C139.787 19.708 139.318 20.6247 138.379 21.27C137.455 21.9153 136.157 22.238 134.485 22.238C133.722 22.238 133.033 22.172 132.417 22.04C131.933 22.1867 131.691 22.4433 131.691 22.81C131.691 23.3087 132.102 23.558 132.923 23.558H136.421ZM134.485 16.914C134.001 16.914 133.605 17.0533 133.297 17.332C133.004 17.6107 132.857 18.0067 132.857 18.52C132.857 19.0187 133.004 19.4073 133.297 19.686C133.605 19.9647 134.001 20.104 134.485 20.104C134.954 20.104 135.343 19.9647 135.651 19.686C135.959 19.4073 136.113 19.0187 136.113 18.52C136.113 18.0067 135.959 17.6107 135.651 17.332C135.343 17.0533 134.954 16.914 134.485 16.914ZM134.353 28.31C135.409 28.31 136.194 28.2 136.707 27.98C137.235 27.7747 137.499 27.5107 137.499 27.188C137.499 26.968 137.411 26.792 137.235 26.66C137.074 26.5427 136.788 26.484 136.377 26.484H132.439C132.16 26.484 131.933 26.5573 131.757 26.704C131.596 26.8507 131.515 27.034 131.515 27.254C131.515 27.5913 131.764 27.848 132.263 28.024C132.762 28.2147 133.458 28.31 134.353 28.31ZM141.867 26V15H145.211L145.321 17.222C145.659 16.4153 146.15 15.8067 146.795 15.396C147.441 14.9853 148.203 14.78 149.083 14.78C150.213 14.78 151.129 15.11 151.833 15.77C152.537 16.43 152.889 17.398 152.889 18.674V26H149.149V19.664C149.149 18.9013 149.003 18.3733 148.709 18.08C148.416 17.7867 148.042 17.64 147.587 17.64C147.045 17.64 146.575 17.8307 146.179 18.212C145.798 18.5933 145.607 19.246 145.607 20.17V26H141.867ZM165.853 23.074H173.135V26H162.069V11.48H165.853V23.074ZM181.177 19.026C181.177 18.5127 181.031 18.1093 180.737 17.816C180.459 17.508 180.077 17.354 179.593 17.354C179.109 17.354 178.691 17.4787 178.339 17.728C178.002 17.9627 177.767 18.388 177.635 19.004L174.467 18.256C174.673 17.2 175.215 16.3567 176.095 15.726C176.975 15.0953 178.215 14.78 179.813 14.78C181.427 14.78 182.673 15.1393 183.553 15.858C184.448 16.562 184.895 17.596 184.895 18.96V22.986C184.895 23.558 185.152 23.844 185.665 23.844C185.929 23.844 186.142 23.8147 186.303 23.756L186.083 25.89C185.643 26.0953 185.108 26.198 184.477 26.198C183.788 26.198 183.194 26.066 182.695 25.802C182.197 25.5233 181.859 25.1053 181.683 24.548C181.375 25.12 180.884 25.5453 180.209 25.824C179.549 26.088 178.845 26.22 178.097 26.22C176.968 26.22 176.066 25.9633 175.391 25.45C174.731 24.922 174.401 24.1667 174.401 23.184C174.401 22.392 174.636 21.7393 175.105 21.226C175.589 20.698 176.345 20.3313 177.371 20.126L181.177 19.334V19.026ZM178.097 22.832C178.097 23.1547 178.215 23.3967 178.449 23.558C178.684 23.7193 178.963 23.8 179.285 23.8C179.784 23.8 180.224 23.6533 180.605 23.36C180.987 23.052 181.177 22.5753 181.177 21.93V21.314L179.395 21.688C178.955 21.776 178.625 21.908 178.405 22.084C178.2 22.2453 178.097 22.4947 178.097 22.832ZM194.842 26.22C193.947 26.22 193.184 25.978 192.554 25.494C191.923 25.01 191.468 24.372 191.19 23.58L191.058 26H187.78V10.336H191.52V16.892C191.813 16.2613 192.246 15.7553 192.818 15.374C193.404 14.978 194.123 14.78 194.974 14.78C195.824 14.78 196.58 15.0073 197.24 15.462C197.9 15.9167 198.42 16.5767 198.802 17.442C199.183 18.2927 199.373 19.3267 199.373 20.544C199.373 22.3333 198.956 23.7267 198.12 24.724C197.284 25.7213 196.191 26.22 194.842 26.22ZM193.544 23.47C194.189 23.47 194.695 23.2353 195.062 22.766C195.428 22.282 195.612 21.5267 195.612 20.5C195.612 19.4733 195.428 18.7253 195.062 18.256C194.695 17.772 194.189 17.53 193.544 17.53C192.913 17.53 192.414 17.794 192.048 18.322C191.696 18.85 191.52 19.5833 191.52 20.522C191.52 21.4753 191.703 22.2087 192.07 22.722C192.436 23.2207 192.928 23.47 193.544 23.47Z" fill="#4671B1"/>
<path fill-rule="evenodd" clip-rule="evenodd" d="M9 9C9 4.02947 13.0294 0 18 0H27H36V0.794117C36 5.3261 32.3261 9 27.7941 9H27V18V18.7941C27 23.3261 23.3261 27 18.7941 27H18V18V9H9Z" fill="#4671B1"/>
<path fill-rule="evenodd" clip-rule="evenodd" d="M9 9V18V27H18V27.7941C18 32.3261 14.3261 36 9.79412 36H9H8.20588C3.6739 36 0 32.3261 0 27.7941V27V18V17.2059C0 12.6739 3.6739 9 8.20588 9H9Z" fill="#4671B1"/>
</svg>
