<svg width="269" height="36" viewBox="0 0 269 36" fill="none" xmlns="http://www.w3.org/2000/svg">
<path d="M56.39 23.074H63.672V26H52.606V11.48H56.39V23.074ZM75.064 11.48V14.406H70.334V26H66.55V14.406H61.798V11.48H75.064ZM88.8328 11.26C90.1821 11.26 91.3701 11.4727 92.3968 11.898C93.4381 12.3087 94.3401 12.9173 95.1028 13.724L93.2768 16.166C92.6461 15.506 91.9641 15.0147 91.2308 14.692C90.5121 14.3547 89.6908 14.186 88.7668 14.186C87.9601 14.186 87.3808 14.318 87.0288 14.582C86.6768 14.846 86.5008 15.1687 86.5008 15.55C86.5008 15.858 86.6401 16.122 86.9188 16.342C87.2121 16.5473 87.6814 16.7233 88.3268 16.87L90.7688 17.42C92.2208 17.7573 93.2841 18.2487 93.9588 18.894C94.6334 19.5393 94.9708 20.3973 94.9708 21.468C94.9708 22.4947 94.7068 23.3673 94.1788 24.086C93.6508 24.79 92.9248 25.3253 92.0008 25.692C91.0768 26.044 90.0208 26.22 88.8328 26.22C87.3661 26.22 86.0241 25.9853 84.8068 25.516C83.5894 25.032 82.6214 24.4013 81.9028 23.624L83.7288 21.094C84.2714 21.7247 85.0048 22.2527 85.9288 22.678C86.8528 23.0887 87.8061 23.294 88.7888 23.294C90.3141 23.294 91.0768 22.8467 91.0768 21.952C91.0768 21.644 90.9594 21.3873 90.7248 21.182C90.5048 20.962 90.0941 20.7787 89.4928 20.632L86.8088 20.038C85.9874 19.862 85.2541 19.6127 84.6088 19.29C83.9781 18.9673 83.4794 18.542 83.1128 18.014C82.7461 17.4713 82.5628 16.7967 82.5628 15.99C82.5628 15.0807 82.8121 14.274 83.3108 13.57C83.8094 12.8513 84.5281 12.2867 85.4668 11.876C86.4054 11.4653 87.5274 11.26 88.8328 11.26ZM104.948 15V17.662H101.67V22.084C101.67 22.612 101.795 22.9933 102.044 23.228C102.308 23.448 102.668 23.558 103.122 23.558C103.474 23.558 103.775 23.5213 104.024 23.448C104.274 23.36 104.508 23.2353 104.728 23.074L105.124 25.384C104.758 25.6333 104.288 25.8387 103.716 26C103.159 26.1467 102.594 26.22 102.022 26.22C100.761 26.22 99.7638 25.956 99.0305 25.428C98.3118 24.8853 97.9451 23.976 97.9305 22.7V17.662H96.0385V15H97.9305V12.536L101.67 11.502V15H104.948ZM110.394 26.22C109.279 26.22 108.37 25.9193 107.666 25.318C106.962 24.7167 106.61 23.7267 106.61 22.348V15H110.35V21.468C110.35 22.172 110.489 22.6633 110.768 22.942C111.047 23.2207 111.443 23.36 111.956 23.36C112.484 23.36 112.931 23.1693 113.298 22.788C113.679 22.392 113.87 21.7613 113.87 20.896V15H117.61V26H114.266L114.156 23.932C113.804 24.7093 113.313 25.2887 112.682 25.67C112.051 26.0367 111.289 26.22 110.394 26.22ZM124.345 26.22C122.981 26.22 121.881 25.7213 121.045 24.724C120.224 23.7267 119.813 22.3333 119.813 20.544C119.813 19.312 120.004 18.2707 120.385 17.42C120.781 16.5547 121.324 15.902 122.013 15.462C122.717 15.0073 123.524 14.78 124.433 14.78C125.21 14.78 125.87 14.9707 126.413 15.352C126.97 15.7333 127.388 16.2393 127.667 16.87V10.336H131.407V26H128.063L127.931 23.844C127.623 24.5773 127.154 25.1567 126.523 25.582C125.907 26.0073 125.181 26.22 124.345 26.22ZM125.643 23.47C126.259 23.47 126.75 23.2133 127.117 22.7C127.484 22.1867 127.667 21.4313 127.667 20.434C127.667 19.51 127.491 18.7987 127.139 18.3C126.787 17.7867 126.296 17.53 125.665 17.53C125.02 17.53 124.506 17.772 124.125 18.256C123.758 18.7253 123.575 19.4733 123.575 20.5C123.575 21.5267 123.758 22.282 124.125 22.766C124.492 23.2353 124.998 23.47 125.643 23.47ZM139.458 26.22C137.625 26.22 136.173 25.7213 135.102 24.724C134.046 23.7267 133.518 22.3187 133.518 20.5C133.518 19.2973 133.76 18.2707 134.244 17.42C134.743 16.5547 135.417 15.902 136.268 15.462C137.133 15.0073 138.138 14.78 139.282 14.78C140.441 14.78 141.423 15.0073 142.23 15.462C143.051 15.902 143.675 16.518 144.1 17.31C144.525 18.0873 144.738 18.982 144.738 19.994C144.738 20.2727 144.723 20.544 144.694 20.808C144.679 21.0573 144.665 21.27 144.65 21.446H137.148C137.251 22.2087 137.5 22.7587 137.896 23.096C138.292 23.4187 138.813 23.58 139.458 23.58C140.015 23.58 140.455 23.47 140.778 23.25C141.115 23.03 141.365 22.722 141.526 22.326L144.518 23.316C144.313 23.9467 143.953 24.482 143.44 24.922C142.941 25.3473 142.34 25.67 141.636 25.89C140.947 26.11 140.221 26.22 139.458 26.22ZM139.282 17.398C138.094 17.398 137.39 18.08 137.17 19.444H141.196C141.035 18.08 140.397 17.398 139.282 17.398ZM146.83 26V15H150.174L150.284 17.222C150.622 16.4153 151.113 15.8067 151.758 15.396C152.404 14.9853 153.166 14.78 154.046 14.78C155.176 14.78 156.092 15.11 156.796 15.77C157.5 16.43 157.852 17.398 157.852 18.674V26H154.112V19.664C154.112 18.9013 153.966 18.3733 153.672 18.08C153.379 17.7867 153.005 17.64 152.55 17.64C152.008 17.64 151.538 17.8307 151.142 18.212C150.761 18.5933 150.57 19.246 150.57 20.17V26H146.83ZM168.284 15V17.662H165.006V22.084C165.006 22.612 165.131 22.9933 165.38 23.228C165.644 23.448 166.004 23.558 166.458 23.558C166.81 23.558 167.111 23.5213 167.36 23.448C167.61 23.36 167.844 23.2353 168.064 23.074L168.46 25.384C168.094 25.6333 167.624 25.8387 167.052 26C166.495 26.1467 165.93 26.22 165.358 26.22C164.097 26.22 163.1 25.956 162.366 25.428C161.648 24.8853 161.281 23.976 161.266 22.7V17.662H159.374V15H161.266V12.536L165.006 11.502V15H168.284ZM193.379 11.48V26H190.035V19.334L190.145 14.868H190.101L186.515 26H183.457L179.871 14.868H179.827L179.937 19.334V26H176.571V11.48H181.961L184.249 18.872L185.063 21.952H185.107L185.943 18.894L188.209 11.48H193.379ZM202.425 19.026C202.425 18.5127 202.279 18.1093 201.985 17.816C201.707 17.508 201.325 17.354 200.841 17.354C200.357 17.354 199.939 17.4787 199.587 17.728C199.25 17.9627 199.015 18.388 198.883 19.004L195.715 18.256C195.921 17.2 196.463 16.3567 197.343 15.726C198.223 15.0953 199.463 14.78 201.061 14.78C202.675 14.78 203.921 15.1393 204.801 15.858C205.696 16.562 206.143 17.596 206.143 18.96V22.986C206.143 23.558 206.4 23.844 206.913 23.844C207.177 23.844 207.39 23.8147 207.551 23.756L207.331 25.89C206.891 26.0953 206.356 26.198 205.725 26.198C205.036 26.198 204.442 26.066 203.943 25.802C203.445 25.5233 203.107 25.1053 202.931 24.548C202.623 25.12 202.132 25.5453 201.457 25.824C200.797 26.088 200.093 26.22 199.345 26.22C198.216 26.22 197.314 25.9633 196.639 25.45C195.979 24.922 195.649 24.1667 195.649 23.184C195.649 22.392 195.884 21.7393 196.353 21.226C196.837 20.698 197.593 20.3313 198.619 20.126L202.425 19.334V19.026ZM199.345 22.832C199.345 23.1547 199.463 23.3967 199.697 23.558C199.932 23.7193 200.211 23.8 200.533 23.8C201.032 23.8 201.472 23.6533 201.853 23.36C202.235 23.052 202.425 22.5753 202.425 21.93V21.314L200.643 21.688C200.203 21.776 199.873 21.908 199.653 22.084C199.448 22.2453 199.345 22.4947 199.345 22.832ZM209.028 26V15H212.372L212.482 17.222C212.819 16.4153 213.31 15.8067 213.956 15.396C214.601 14.9853 215.364 14.78 216.244 14.78C217.373 14.78 218.29 15.11 218.994 15.77C219.698 16.43 220.05 17.398 220.05 18.674V26H216.31V19.664C216.31 18.9013 216.163 18.3733 215.87 18.08C215.576 17.7867 215.202 17.64 214.748 17.64C214.205 17.64 213.736 17.8307 213.34 18.212C212.958 18.5933 212.768 19.246 212.768 20.17V26H209.028ZM228.808 19.026C228.808 18.5127 228.661 18.1093 228.368 17.816C228.089 17.508 227.708 17.354 227.224 17.354C226.74 17.354 226.322 17.4787 225.97 17.728C225.633 17.9627 225.398 18.388 225.266 19.004L222.098 18.256C222.303 17.2 222.846 16.3567 223.726 15.726C224.606 15.0953 225.845 14.78 227.444 14.78C229.057 14.78 230.304 15.1393 231.184 15.858C232.079 16.562 232.526 17.596 232.526 18.96V22.986C232.526 23.558 232.783 23.844 233.296 23.844C233.56 23.844 233.773 23.8147 233.934 23.756L233.714 25.89C233.274 26.0953 232.739 26.198 232.108 26.198C231.419 26.198 230.825 26.066 230.326 25.802C229.827 25.5233 229.49 25.1053 229.314 24.548C229.006 25.12 228.515 25.5453 227.84 25.824C227.18 26.088 226.476 26.22 225.728 26.22C224.599 26.22 223.697 25.9633 223.022 25.45C222.362 24.922 222.032 24.1667 222.032 23.184C222.032 22.392 222.267 21.7393 222.736 21.226C223.22 20.698 223.975 20.3313 225.002 20.126L228.808 19.334V19.026ZM225.728 22.832C225.728 23.1547 225.845 23.3967 226.08 23.558C226.315 23.7193 226.593 23.8 226.916 23.8C227.415 23.8 227.855 23.6533 228.236 23.36C228.617 23.052 228.808 22.5753 228.808 21.93V21.314L227.026 21.688C226.586 21.776 226.256 21.908 226.036 22.084C225.831 22.2453 225.728 22.4947 225.728 22.832ZM242.382 23.558C243.658 23.558 244.633 23.8293 245.308 24.372C245.997 24.9 246.342 25.6627 246.342 26.66C246.342 28.0387 245.792 29.058 244.692 29.718C243.606 30.3927 242.14 30.73 240.292 30.73C238.297 30.73 236.86 30.4807 235.98 29.982C235.1 29.4833 234.66 28.8087 234.66 27.958C234.66 27.4593 234.821 27.034 235.144 26.682C235.481 26.33 236.016 26.088 236.75 25.956C235.679 25.56 235.144 24.8193 235.144 23.734C235.144 23.2207 235.298 22.7733 235.606 22.392C235.914 21.996 236.339 21.71 236.882 21.534C235.708 20.8887 235.122 19.884 235.122 18.52C235.122 17.332 235.584 16.4153 236.508 15.77C237.446 15.11 238.759 14.78 240.446 14.78C241.296 14.78 242.066 14.868 242.756 15.044C242.814 14.516 242.961 14.0247 243.196 13.57C243.445 13.1153 243.782 12.7487 244.208 12.47C244.648 12.1767 245.183 12.03 245.814 12.03C245.858 12.03 245.909 12.0373 245.968 12.052C246.026 12.052 246.092 12.052 246.166 12.052L246.474 14.56C246.312 14.516 246.136 14.494 245.946 14.494C245.432 14.494 245.022 14.5967 244.714 14.802C244.406 15.0073 244.2 15.2713 244.098 15.594C245.198 16.2393 245.748 17.2147 245.748 18.52C245.748 19.708 245.278 20.6247 244.34 21.27C243.416 21.9153 242.118 22.238 240.446 22.238C239.683 22.238 238.994 22.172 238.378 22.04C237.894 22.1867 237.652 22.4433 237.652 22.81C237.652 23.3087 238.062 23.558 238.884 23.558H242.382ZM240.446 16.914C239.962 16.914 239.566 17.0533 239.258 17.332C238.964 17.6107 238.818 18.0067 238.818 18.52C238.818 19.0187 238.964 19.4073 239.258 19.686C239.566 19.9647 239.962 20.104 240.446 20.104C240.915 20.104 241.304 19.9647 241.612 19.686C241.92 19.4073 242.074 19.0187 242.074 18.52C242.074 18.0067 241.92 17.6107 241.612 17.332C241.304 17.0533 240.915 16.914 240.446 16.914ZM240.314 28.31C241.37 28.31 242.154 28.2 242.668 27.98C243.196 27.7747 243.46 27.5107 243.46 27.188C243.46 26.968 243.372 26.792 243.196 26.66C243.034 26.5427 242.748 26.484 242.338 26.484H238.4C238.121 26.484 237.894 26.5573 237.718 26.704C237.556 26.8507 237.476 27.034 237.476 27.254C237.476 27.5913 237.725 27.848 238.224 28.024C238.722 28.2147 239.419 28.31 240.314 28.31ZM253.196 26.22C251.363 26.22 249.911 25.7213 248.84 24.724C247.784 23.7267 247.256 22.3187 247.256 20.5C247.256 19.2973 247.498 18.2707 247.982 17.42C248.481 16.5547 249.156 15.902 250.006 15.462C250.872 15.0073 251.876 14.78 253.02 14.78C254.179 14.78 255.162 15.0073 255.968 15.462C256.79 15.902 257.413 16.518 257.838 17.31C258.264 18.0873 258.476 18.982 258.476 19.994C258.476 20.2727 258.462 20.544 258.432 20.808C258.418 21.0573 258.403 21.27 258.388 21.446H250.886C250.989 22.2087 251.238 22.7587 251.634 23.096C252.03 23.4187 252.551 23.58 253.196 23.58C253.754 23.58 254.194 23.47 254.516 23.25C254.854 23.03 255.103 22.722 255.264 22.326L258.256 23.316C258.051 23.9467 257.692 24.482 257.178 24.922C256.68 25.3473 256.078 25.67 255.374 25.89C254.685 26.11 253.959 26.22 253.196 26.22ZM253.02 17.398C251.832 17.398 251.128 18.08 250.908 19.444H254.934C254.773 18.08 254.135 17.398 253.02 17.398ZM260.569 26V15H263.869L264.023 17.376C264.287 16.5693 264.69 15.9387 265.233 15.484C265.79 15.0147 266.501 14.78 267.367 14.78C267.645 14.78 267.88 14.8093 268.071 14.868C268.276 14.912 268.437 14.9633 268.555 15.022L268.181 18.102C268.034 18.058 267.843 18.014 267.609 17.97C267.389 17.926 267.117 17.904 266.795 17.904C266.12 17.904 265.533 18.1167 265.035 18.542C264.551 18.9673 264.309 19.6053 264.309 20.456V26H260.569Z" fill="#4671B1"/>
<path fill-rule="evenodd" clip-rule="evenodd" d="M9 9C9 4.02947 13.0294 0 18 0H27H36V0.794117C36 5.3261 32.3261 9 27.7941 9H27V18V18.7941C27 23.3261 23.3261 27 18.7941 27H18V18V9H9Z" fill="#4671B1"/>
<path fill-rule="evenodd" clip-rule="evenodd" d="M9 9V18V27H18V27.7941C18 32.3261 14.3261 36 9.79412 36H9H8.20588C3.6739 36 0 32.3261 0 27.7941V27V18V17.2059C0 12.6739 3.6739 9 8.20588 9H9Z" fill="#4671B1"/>
</svg>
